<svg fill="#75b0f1" width="96" height="96" viewBox="0 0 24 24" xmlns="http://www.w3.org/2000/svg"><circle cx="12" cy="12" r="12" fill="#0a0c10"/><path d="M20.74 10.148a5.087 5.087 0 0 0-.439-4.174 5.14 5.14 0 0 0-5.533-2.465 5.155 5.155 0 0 0-8.734 1.846A5.087 5.087 0 0 0 2.636 7.82a5.14 5.14 0 0 0 .63 6.032 5.083 5.083 0 0 0 .435 4.174A5.143 5.143 0 0 0 9.24 20.49 5.087 5.087 0 0 0 13.07 22.2a5.147 5.147 0 0 0 4.906-3.575 5.091 5.091 0 0 0 3.398-2.465 5.147 5.147 0 0 0-.635-6.012zm-7.67 10.717a3.804 3.804 0 0 1-2.444-.885l.12-.068 4.062-2.345a.676.676 0 0 0 .334-.579v-5.726l1.717.993a.06.06 0 0 1 .032.044v4.746a3.828 3.828 0 0 1-3.82 3.82zm-8.21-3.507a3.8 3.8 0 0 1-.455-2.561l.12.072 4.066 2.344a.656.656 0 0 0 .664 0l4.966-2.863v1.983a.068.068 0 0 1-.028.052l-4.114 2.373a3.824 3.824 0 0 1-5.22-1.4zM3.79 8.511A3.812 3.812 0 0 1 5.8 6.834v4.826a.651.651 0 0 0 .33.575l4.942 2.851-1.717.993a.064.064 0 0 1-.06 0l-4.106-2.368a3.828 3.828 0 0 1-1.4-5.22zm14.107 3.278-4.959-2.88 1.713-.989a.064.064 0 0 1 .06 0l4.106 2.373a3.82 3.82 0 0 1-.575 6.888v-4.825a.671.671 0 0 0-.346-.567zm1.709-2.57-.121-.072-4.058-2.365a.66.66 0 0 0-.667 0L9.798 9.645V7.663a.056.056 0 0 1 .024-.052l4.106-2.37a3.824 3.824 0 0 1 5.678 3.962zM8.86 12.734l-1.717-.99a.068.068 0 0 1-.033-.048V6.963a3.824 3.824 0 0 1 6.27-2.936l-.121.069L9.198 6.44a.676.676 0 0 0-.333.58zm.932-2.011 2.212-1.275 2.216 1.275v2.55l-2.208 1.274-2.215-1.275z"/></svg>